<mxfile host="app.diagrams.net" modified="2024-04-27T06:17:20.442Z" agent="Mozilla/5.0 (Windows NT 10.0; Win64; x64) AppleWebKit/537.36 (KHTML, like Gecko) Chrome/124.0.0.0 Safari/537.36" etag="ku1osn1GEaT5jCRRDV17" version="24.3.1" type="google">
  <diagram name="Page-1" id="7i0HS5fh59K__IMDZCdu">
    <mxGraphModel grid="1" page="1" gridSize="10" guides="1" tooltips="1" connect="1" arrows="1" fold="1" pageScale="1" pageWidth="827" pageHeight="1169" math="0" shadow="0">
      <root>
        <mxCell id="0" />
        <mxCell id="1" parent="0" />
        <mxCell id="bnqMVER4PhRWbPe9dfjj-3" value="&lt;b&gt;Key&lt;/b&gt;" style="rounded=1;whiteSpace=wrap;html=1;labelPosition=center;verticalLabelPosition=middle;align=center;verticalAlign=top;fontSize=18;strokeWidth=2;labelBackgroundColor=none;" vertex="1" parent="1">
          <mxGeometry x="-1640" y="-1000" width="330" height="120" as="geometry" />
        </mxCell>
        <mxCell id="bnqMVER4PhRWbPe9dfjj-6" value="module" style="rounded=1;whiteSpace=wrap;html=1;fillColor=#e1d5e7;strokeColor=#9673a6;fontSize=18;strokeWidth=2;labelBackgroundColor=none;" vertex="1" parent="1">
          <mxGeometry x="-1610" y="-960" width="120" height="60" as="geometry" />
        </mxCell>
        <UserObject label="Pre-Purchase Checks" link="https://judewoodprofessional.atlassian.net/wiki/x/PgAZ" id="29-j7Kuki4oMghEM3cAb-2">
          <mxCell style="rounded=1;whiteSpace=wrap;html=1;fillColor=#e1d5e7;strokeColor=#9673a6;fontSize=18;strokeWidth=2;labelBackgroundColor=none;" vertex="1" parent="1">
            <mxGeometry x="-1240" y="-860" width="120" height="70" as="geometry" />
          </mxCell>
        </UserObject>
        <mxCell id="29-j7Kuki4oMghEM3cAb-6" style="edgeStyle=orthogonalEdgeStyle;rounded=0;orthogonalLoop=1;jettySize=auto;html=1;flowAnimation=0;strokeWidth=2;fontSize=18;labelBackgroundColor=none;" edge="1" parent="1" source="29-j7Kuki4oMghEM3cAb-5" target="29-j7Kuki4oMghEM3cAb-2">
          <mxGeometry relative="1" as="geometry" />
        </mxCell>
        <mxCell id="g_vxQA4Y30Inmzc_NCyc-1" value="Checkout&amp;nbsp;&lt;div style=&quot;font-size: 18px;&quot;&gt;request&lt;/div&gt;" style="edgeLabel;html=1;align=left;verticalAlign=middle;resizable=0;points=[];fontSize=18;labelBackgroundColor=none;" connectable="0" vertex="1" parent="29-j7Kuki4oMghEM3cAb-6">
          <mxGeometry x="0.012" y="1" relative="1" as="geometry">
            <mxPoint x="-48" y="-24" as="offset" />
          </mxGeometry>
        </mxCell>
        <mxCell id="29-j7Kuki4oMghEM3cAb-5" value="Purchase Request Handling&amp;nbsp;" style="rounded=1;whiteSpace=wrap;html=1;fillColor=#e1d5e7;strokeColor=#9673a6;fontSize=18;strokeWidth=2;labelBackgroundColor=none;" vertex="1" parent="1">
          <mxGeometry x="-1461" y="-860" width="120" height="70" as="geometry" />
        </mxCell>
        <UserObject label="Parent" link="https://judewoodprofessional.atlassian.net/wiki/x/AYAY" id="g0uhKEqvXmseJf5cihsP-1">
          <mxCell style="image;aspect=fixed;html=1;points=[];align=center;fontSize=18;image=img/lib/azure2/general/Launch_Portal.svg;labelBackgroundColor=none;imageBackground=default;strokeWidth=2;" vertex="1" parent="1">
            <mxGeometry x="-977" y="-1010" width="68" height="67" as="geometry" />
          </mxCell>
        </UserObject>
        <mxCell id="g0uhKEqvXmseJf5cihsP-5" style="edgeStyle=orthogonalEdgeStyle;rounded=0;orthogonalLoop=1;jettySize=auto;html=1;entryX=0;entryY=0.5;entryDx=0;entryDy=0;strokeWidth=2;labelBackgroundColor=none;fontSize=18;" edge="1" parent="1" source="g0uhKEqvXmseJf5cihsP-4" target="29-j7Kuki4oMghEM3cAb-5">
          <mxGeometry relative="1" as="geometry" />
        </mxCell>
        <UserObject label="User Interface" link="https://judewoodprofessional.atlassian.net/wiki/x/CQAW" id="g0uhKEqvXmseJf5cihsP-4">
          <mxCell style="rounded=1;whiteSpace=wrap;html=1;fillColor=#e1d5e7;strokeColor=#9673a6;fontSize=18;strokeWidth=2;labelBackgroundColor=none;fillStyle=auto;opacity=50;" vertex="1" parent="1">
            <mxGeometry x="-1640" y="-860" width="120" height="70" as="geometry" />
          </mxCell>
        </UserObject>
        <mxCell id="g0uhKEqvXmseJf5cihsP-7" value="Reporting&lt;div style=&quot;font-size: 18px;&quot;&gt;&lt;/div&gt;" style="rounded=1;whiteSpace=wrap;html=1;fillColor=#e1d5e7;strokeColor=#9673a6;fontSize=18;strokeWidth=2;labelBackgroundColor=none;opacity=50;" vertex="1" parent="1">
          <mxGeometry x="-1029" y="-860" width="120" height="70" as="geometry" />
        </mxCell>
        <mxCell id="g0uhKEqvXmseJf5cihsP-10" style="edgeStyle=orthogonalEdgeStyle;rounded=0;orthogonalLoop=1;jettySize=auto;html=1;strokeWidth=2;exitX=1;exitY=0.5;exitDx=0;exitDy=0;labelBackgroundColor=none;fontSize=18;entryX=0;entryY=0.5;entryDx=0;entryDy=0;" edge="1" parent="1" source="29-j7Kuki4oMghEM3cAb-2" target="g0uhKEqvXmseJf5cihsP-7">
          <mxGeometry relative="1" as="geometry">
            <mxPoint x="-1019" y="-790" as="sourcePoint" />
            <mxPoint x="-579" y="-810" as="targetPoint" />
          </mxGeometry>
        </mxCell>
        <mxCell id="g0uhKEqvXmseJf5cihsP-12" value="&lt;div style=&quot;font-size: 18px;&quot;&gt;Item&lt;/div&gt;&lt;div style=&quot;font-size: 18px;&quot;&gt;Reserved&amp;nbsp;&lt;/div&gt;&lt;div style=&quot;font-size: 18px;&quot;&gt;&lt;br&gt;&lt;/div&gt;" style="edgeLabel;html=1;align=left;verticalAlign=middle;resizable=0;points=[];labelBackgroundColor=none;fontSize=18;" connectable="0" vertex="1" parent="g0uhKEqvXmseJf5cihsP-10">
          <mxGeometry x="-0.4256" y="-4" relative="1" as="geometry">
            <mxPoint x="-28" y="-19" as="offset" />
          </mxGeometry>
        </mxCell>
        <mxCell id="g0uhKEqvXmseJf5cihsP-14" value="connecting module" style="rounded=1;whiteSpace=wrap;html=1;fillColor=#e1d5e7;strokeColor=#9673a6;fontSize=18;strokeWidth=2;labelBackgroundColor=none;fillStyle=auto;opacity=50;" vertex="1" parent="1">
          <mxGeometry x="-1461" y="-960" width="120" height="60" as="geometry" />
        </mxCell>
        <mxCell id="W9YBVLS_ZixFkhgkdjdX-1" value="&lt;b&gt;Description&lt;/b&gt;&lt;div&gt;&lt;br&gt;&lt;div&gt;&amp;nbsp;Handles requests to purchase item(s) by checking that the item(s) can be purchased and&amp;nbsp; updating the item(s) status. Requests the notification service to send emails to seller and buyer&amp;nbsp;&amp;nbsp;&lt;/div&gt;&lt;/div&gt;" style="rounded=1;whiteSpace=wrap;html=1;labelPosition=center;verticalLabelPosition=middle;align=left;verticalAlign=top;fontSize=18;labelBackgroundColor=none;strokeWidth=2;" vertex="1" parent="1">
          <mxGeometry x="-1640" y="-1150" width="730" height="130" as="geometry" />
        </mxCell>
      </root>
    </mxGraphModel>
  </diagram>
</mxfile>
